HIERARCHY
ROOT Joint1
{
	OFFSET 0.000000 0.000000 0.000000
	CHANNELS 6 Xposition Yposition Zposition Xrotation Yrotation Zrotation
	JOINT Joint2
	{
		OFFSET -0.000000 0.000000 1.456275
		CHANNELS 6 Xposition Yposition Zposition Xrotation Yrotation Zrotation
		JOINT Joint3
		{
			OFFSET -0.000000 0.000002 1.471446
			CHANNELS 6 Xposition Yposition Zposition Xrotation Yrotation Zrotation
			JOINT Joint4
			{
				OFFSET 0.625745 0.000000 0.917755
				CHANNELS 6 Xposition Yposition Zposition Xrotation Yrotation Zrotation
				JOINT Joint5
				{
					OFFSET -0.629534 0.000001 0.940221
					CHANNELS 6 Xposition Yposition Zposition Xrotation Yrotation Zrotation
					JOINT Joint6
					{
						OFFSET -0.000001 0.113772 1.960660
						CHANNELS 6 Xposition Yposition Zposition Xrotation Yrotation Zrotation
						JOINT Joint7
						{
							OFFSET -0.669733 -0.113771 0.388340
							CHANNELS 6 Xposition Yposition Zposition Xrotation Yrotation Zrotation
							End Site
							{
								OFFSET 0.005509 0.005509 0.438980
							}
						}
					}
				}
			}
		}
	}
}
MOTION
Frames: 22
Frame Time: 0.041667
0.000000 0.000000 0.000000 -0.000000 1.019410 -92.044107 -0.000000 0.000000 1.456275 0.000000 -72.642456 0.000001 -0.000000 0.000002 1.471446 -0.000000 -1.133462 -19.586539 0.625745 0.000000 0.917755 0.000001 22.994865 -0.000001 -0.629534 0.000001 0.940220 0.000001 1.709741 -101.808348 -0.000001 0.113772 1.960661 -88.303882 160.653986 -0.000001 -0.669733 -0.113771 0.388340 -1.592987 3.048012 -164.341359 
0.000000 0.000000 0.000000 -0.000000 1.019410 -91.969542 -0.000000 0.000000 1.456275 -0.000000 -72.620053 0.000000 -0.000000 0.000002 1.471446 -0.000000 -1.133460 -19.570690 0.625745 0.000000 0.917755 -0.000002 23.085623 -0.000000 -0.629534 0.000001 0.940221 -0.000001 1.709737 -101.725880 -0.000001 0.113772 1.960660 -88.303882 160.596708 -0.000001 -0.669733 -0.113771 0.388341 -1.592559 3.048774 -164.390509 
0.000000 0.000000 0.000000 -0.000000 1.019410 -91.845465 -0.000000 -0.000000 1.456275 0.000000 -72.582767 -0.000000 -0.000001 0.000002 1.471446 0.000000 -1.133461 -19.544328 0.625745 0.000000 0.917755 -0.000001 23.236648 0.000002 -0.629533 0.000001 0.940221 0.000000 1.709738 -101.588655 -0.000001 0.113772 1.960660 -88.303875 160.501427 0.000001 -0.669733 -0.113771 0.388339 -1.591845 3.050037 -164.472280 
0.000000 0.000000 0.000000 -0.000000 1.019410 -91.672040 -0.000000 0.000000 1.456275 -0.000001 -72.530653 -0.000000 -0.000000 0.000002 1.471446 -0.000000 -1.133464 -19.507478 0.625744 0.000001 0.917755 -0.000003 23.447730 0.000002 -0.629534 0.000001 0.940220 0.000001 1.709730 -101.396856 -0.000001 0.113772 1.960661 -88.303875 160.368252 -0.000000 -0.669733 -0.113771 0.388340 -1.590841 3.051799 -164.586604 
0.000000 0.000000 0.000000 -0.000000 1.019410 -91.449423 -0.000000 0.000000 1.456275 -0.000001 -72.463765 -0.000000 -0.000000 0.000002 1.471446 -0.000000 -1.133462 -19.460174 0.625745 0.000001 0.917755 -0.000003 23.718675 0.000001 -0.629534 0.000001 0.940221 0.000001 1.709730 -101.150662 -0.000001 0.113772 1.960662 -88.303875 160.197292 0.000000 -0.669733 -0.113772 0.388340 -1.589560 3.054064 -164.733316 
0.000000 0.000000 0.000000 -0.000000 1.019410 -91.177800 -0.000000 0.000000 1.456275 0.000000 -72.382151 0.000000 -0.000000 0.000002 1.471446 -0.000000 -1.133462 -19.402455 0.625745 0.000000 0.917755 -0.000001 24.049284 0.000001 -0.629534 0.000001 0.940221 -0.000000 1.709739 -100.850263 -0.000001 0.113772 1.960661 -88.303868 159.988712 0.000000 -0.669733 -0.113771 0.388340 -1.587971 3.056817 -164.912349 
0.000000 0.000000 0.000000 -0.000000 1.019410 -90.857321 -0.000000 -0.000000 1.456275 -0.000000 -72.285852 -0.000000 -0.000000 0.000002 1.471446 -0.000000 -1.133465 -19.334355 0.625745 0.000000 0.917755 -0.000001 24.439347 0.000001 -0.629534 0.000001 0.940221 0.000000 1.709737 -100.495831 -0.000001 0.113772 1.960660 -88.303875 159.742593 -0.000001 -0.669733 -0.113771 0.388339 -1.586095 3.060062 -165.123580 
0.000000 0.000000 0.000000 -0.000000 1.019410 -90.488163 -0.000000 -0.000000 1.456275 0.000000 -72.174923 -0.000000 -0.000000 0.000002 1.471446 -0.000000 -1.133463 -19.255908 0.625744 0.000000 0.917755 -0.000001 24.888668 -0.000001 -0.629534 0.000001 0.940221 0.000001 1.709737 -100.087557 -0.000001 0.113773 1.960660 -88.303875 159.459099 0.000003 -0.669733 -0.113771 0.388340 -1.583918 3.063790 -165.366912 
0.000000 0.000000 0.000000 -0.000000 1.019410 -90.070483 -0.000000 -0.000000 1.456275 -0.000000 -72.049418 0.000000 -0.000000 0.000002 1.471445 -0.000000 -1.133463 -19.167150 0.625744 0.000000 0.917755 -0.000000 25.397049 -0.000001 -0.629534 0.000001 0.940221 0.000001 1.709731 -99.625624 -0.000001 0.113772 1.960661 -88.303882 159.138326 0.000001 -0.669733 -0.113771 0.388340 -1.581438 3.067996 -165.642210 
0.000000 0.000000 0.000000 -0.000000 1.019410 -89.604439 -0.000000 0.000000 1.456275 -0.000000 -71.909386 -0.000000 -0.000000 0.000002 1.471446 -0.000000 -1.133460 -19.068123 0.625745 0.000001 0.917756 -0.000001 25.964286 0.000000 -0.629534 0.000001 0.940220 0.000002 1.709735 -99.110211 -0.000001 0.113771 1.960661 -88.303882 158.780438 0.000002 -0.669733 -0.113770 0.388340 -1.578642 3.072678 -165.949391 
0.000000 0.000000 0.000000 -0.000000 1.019410 -89.090201 -0.000000 0.000000 1.456275 0.000000 -71.754867 0.000000 -0.000000 0.000002 1.471446 -0.000000 -1.133460 -18.958853 0.625745 0.000000 0.917755 0.000000 26.590177 0.000002 -0.629534 0.000001 0.940220 0.000001 1.709733 -98.541489 -0.000001 0.113772 1.960660 -88.303875 158.385544 0.000001 -0.669733 -0.113770 0.388339 -1.575530 3.077827 -166.288332 
0.000000 0.000000 0.000000 -0.000000 1.019410 -88.527946 -0.000000 -0.000000 1.456275 0.000000 -71.585915 -0.000000 -0.000000 0.000002 1.471446 -0.000000 -1.133461 -18.839371 0.625745 0.000000 0.917755 -0.000002 27.274527 0.000002 -0.629534 0.000001 0.940221 0.000000 1.709736 -97.919661 -0.000001 0.113772 1.960660 -88.303875 157.953753 0.000000 -0.669733 -0.113771 0.388340 -1.572097 3.083433 -166.658938 
0.000000 0.000000 0.000000 -0.000000 1.019410 -87.917696 -0.000000 -0.000000 1.456275 0.000000 -71.402545 0.000001 -0.000000 0.000002 1.471446 -0.000000 -1.133463 -18.709698 0.625745 0.000000 0.917755 0.000000 28.017275 0.000001 -0.629534 0.000001 0.940220 -0.000001 1.709737 -97.244764 -0.000001 0.113772 1.960661 -88.303882 157.485120 0.000002 -0.669733 -0.113771 0.388339 -1.568321 3.089493 -167.061168 
0.000000 0.000000 0.000000 -0.000000 1.019410 -87.259034 -0.000000 -0.000000 1.456275 -0.000000 -71.204626 -0.000001 -0.000000 0.000002 1.471446 -0.000000 -1.133459 -18.569737 0.625745 0.000000 0.917755 -0.000002 28.818966 0.000004 -0.629534 0.000001 0.940220 0.000000 1.709733 -96.516317 -0.000001 0.113771 1.960660 -88.303875 156.979303 0.000003 -0.669733 -0.113770 0.388340 -1.564201 3.096004 -167.495308 
0.000000 0.000000 0.000000 -0.000000 1.019410 -86.551385 -0.000000 0.000000 1.456275 0.000000 -70.991996 0.000000 -0.000000 0.000002 1.471446 -0.000000 -1.133461 -18.419367 0.625745 0.000000 0.917755 -0.000000 29.680276 0.000002 -0.629534 0.000001 0.940221 0.000000 1.709734 -95.733694 -0.000001 0.113772 1.960660 -88.303882 156.435852 0.000001 -0.669733 -0.113771 0.388340 -1.559724 3.102964 -167.961769 
0.000000 0.000000 0.000000 -0.000000 1.019410 -85.794197 -0.000000 0.000000 1.456275 -0.000002 -70.764469 0.000001 -0.000001 0.000002 1.471446 -0.000001 -1.133462 -18.258467 0.625745 0.000000 0.917755 -0.000001 30.601887 0.000003 -0.629534 0.000001 0.940221 -0.000001 1.709740 -94.896271 -0.000001 0.113772 1.960661 -88.303875 155.854385 0.000000 -0.669733 -0.113770 0.388340 -1.554868 3.110372 -168.460865 
0.000000 0.000000 0.000000 -0.000000 1.019410 -84.986890 -0.000000 0.000000 1.456275 0.000002 -70.521888 0.000001 -0.000001 0.000002 1.471446 -0.000001 -1.133463 -18.086915 0.625744 0.000000 0.917755 -0.000002 31.584492 0.000001 -0.629534 0.000001 0.940220 0.000001 1.709735 -94.003443 -0.000001 0.113772 1.960660 -88.303875 155.234408 0.000000 -0.669733 -0.113771 0.388340 -1.549618 3.118222 -168.993005 
0.000000 0.000000 0.000000 -0.000000 1.019410 -84.132057 -0.000000 0.000000 1.456275 0.000001 -70.265032 -0.000001 -0.000000 0.000002 1.471446 0.000001 -1.133461 -17.905267 0.625745 0.000000 0.917755 -0.000001 32.624945 0.000002 -0.629534 0.000001 0.940221 0.000001 1.709734 -93.058042 -0.000001 0.113771 1.960661 -88.303875 154.577945 0.000001 -0.669733 -0.113770 0.388340 -1.543979 3.126480 -169.556468 
0.000000 0.000000 0.000000 -0.000000 1.019410 -83.244781 -0.000000 -0.000000 1.456275 0.000001 -69.998408 0.000001 -0.000001 0.000002 1.471446 -0.000000 -1.133461 -17.716725 0.625745 0.000000 0.917755 -0.000002 33.704887 0.000003 -0.629534 0.000001 0.940221 -0.000000 1.709737 -92.076769 -0.000001 0.113772 1.960660 -88.303882 153.896566 0.000002 -0.669733 -0.113771 0.388340 -1.538047 3.134993 -170.141351 
0.000000 0.000000 0.000000 -0.000000 1.019410 -82.343285 -0.000000 -0.000000 1.456275 0.000001 -69.727530 0.000000 -0.000000 0.000002 1.471446 -0.000001 -1.133459 -17.525167 0.625745 0.000000 0.917755 -0.000001 34.802116 -0.000001 -0.629534 0.000001 0.940221 0.000001 1.709733 -91.079773 -0.000001 0.113772 1.960661 -88.303875 153.204271 0.000001 -0.669733 -0.113771 0.388340 -1.531929 3.143582 -170.735577 
0.000000 0.000000 0.000000 -0.000000 1.019410 -81.445826 -0.000000 0.000000 1.456275 -0.000002 -69.457867 -0.000001 -0.000000 0.000002 1.471446 -0.000001 -1.133460 -17.334460 0.625745 0.000000 0.917755 0.000000 35.894454 -0.000000 -0.629534 0.000001 0.940221 0.000001 1.709737 -90.087231 -0.000001 0.113772 1.960660 -88.303875 152.515078 0.000002 -0.669733 -0.113771 0.388340 -1.525742 3.152067 -171.327167 
0.000000 0.000000 0.000000 -0.000000 1.019410 -80.565046 -0.000000 0.000000 1.456275 0.000005 -69.193211 0.000000 -0.000000 0.000002 1.471445 0.000000 -1.133460 -17.147299 0.625745 0.000000 0.917755 -0.000001 36.966480 -0.000000 -0.629534 0.000001 0.940221 0.000003 1.709738 -89.113143 -0.000001 0.113772 1.960660 -88.303882 151.838684 0.000000 -0.669733 -0.113771 0.388340 -1.519592 3.160334 -171.907761 
